<svg width="76" height="25" viewBox="0 0 76 25" fill="none" xmlns="http://www.w3.org/2000/svg">
<path d="M1.64666 3.85808C1.65932 3.72413 1.71587 3.59812 1.80752 3.49962C1.85847 3.44807 1.91989 3.40805 1.98763 3.38227C2.05537 3.35648 2.12785 3.34553 2.20019 3.35015H6.20663C6.33649 3.34367 6.46429 3.38452 6.56632 3.46511C6.66834 3.54571 6.73767 3.66058 6.76143 3.78842L9.90147 14.2726L13.0681 3.78842C13.1026 3.6597 13.1795 3.5464 13.2864 3.46685C13.3933 3.38731 13.5239 3.34619 13.6571 3.35015H17.6053C17.7455 3.34922 17.8811 3.40072 17.9853 3.49455C18.0393 3.5397 18.0839 3.59504 18.1165 3.65742C18.1491 3.71979 18.1691 3.78798 18.1753 3.85808C18.4455 6.56789 18.7208 9.25616 19.0012 11.9229C19.2815 14.5896 19.5568 17.2783 19.827 19.989V20.046C19.827 20.3466 19.6581 20.4969 19.3204 20.4969H16.0384C15.6838 20.4969 15.4988 20.328 15.4836 19.9903L14.4792 11.0641L11.8813 20.046C11.85 20.1512 11.7925 20.2467 11.7141 20.3234C11.681 20.3686 11.6387 20.4063 11.59 20.434C11.5413 20.4617 11.4874 20.4788 11.4316 20.4843H8.39162C8.28009 20.471 8.17799 20.4152 8.10662 20.3285C8.02032 20.2561 7.96133 20.1564 7.93942 20.046L5.3339 11.0856L4.32944 19.989C4.31424 20.3268 4.12593 20.4957 3.76451 20.4957H0.49653C0.166355 20.4957 0.000844439 20.3268 0 19.989L1.64666 3.85808Z" fill="white"/>
<path d="M21.2227 13.1744C21.2201 12.4843 21.3113 11.7969 21.4938 11.1313C21.8361 9.86679 22.5049 8.71447 23.433 7.78988C23.8895 7.33354 24.4039 6.93919 24.9632 6.61695C26.138 5.9475 27.468 5.59809 28.8201 5.60363C29.8123 5.59823 30.7958 5.7888 31.7142 6.1644C32.6326 6.54001 33.4677 7.09326 34.1718 7.79241C34.8596 8.48376 35.4083 9.30077 35.788 10.1991C36.1894 11.1424 36.392 12.1582 36.3834 13.1833C36.3857 13.8718 36.2945 14.5574 36.1123 15.2214C35.9377 15.8576 35.6822 16.4689 35.3523 17.0403C34.3595 18.7424 32.7378 19.9865 30.8367 20.5046C30.1802 20.6828 29.5028 20.7718 28.8227 20.7693C28.1346 20.7718 27.4492 20.6828 26.7846 20.5046C24.8772 19.9933 23.2496 18.7478 22.2576 17.0403C21.927 16.4692 21.6716 15.8579 21.4976 15.2214C21.3127 14.5549 21.2202 13.8661 21.2227 13.1744ZM25.4369 13.1744C25.4329 13.66 25.513 14.1425 25.6738 14.6007C25.8199 15.0235 26.0471 15.4137 26.3425 15.7496C26.6359 16.0757 26.9939 16.3371 27.3939 16.5172C27.8322 16.7118 28.3077 16.8086 28.7872 16.8009C29.2556 16.8084 29.7197 16.7119 30.1463 16.5184C30.5397 16.3383 30.8903 16.0767 31.1749 15.7508C31.4636 15.4141 31.6831 15.0237 31.8208 14.602C32.1215 13.681 32.1215 12.6882 31.8208 11.7672C31.6805 11.3378 31.4614 10.9384 31.1749 10.5892C30.8851 10.2394 30.5204 9.95926 30.1078 9.76939C29.6952 9.57953 29.2451 9.48482 28.791 9.49227C28.3103 9.4845 27.834 9.58538 27.3977 9.7874C26.9944 9.97719 26.636 10.2505 26.3463 10.5892C26.0531 10.9376 25.8264 11.3369 25.6776 11.7672C25.5172 12.219 25.4358 12.695 25.4369 13.1744Z" fill="white"/>
<path d="M38.542 6.67527C38.5378 6.55504 38.5581 6.4352 38.6016 6.32305C38.6452 6.21091 38.7111 6.1088 38.7954 6.02294C38.8847 5.93698 38.9907 5.87017 39.1068 5.82661C39.2229 5.78305 39.3467 5.76365 39.4705 5.76961H49.1934C49.4305 5.76611 49.6614 5.8459 49.8457 5.99507C49.9425 6.07751 50.0185 6.18159 50.0676 6.29889C50.1167 6.41618 50.1374 6.54339 50.1282 6.6702V8.68419C50.1276 8.76551 50.1221 8.84673 50.1117 8.92739C50.0946 9.02901 50.0509 9.1243 49.985 9.20352L43.6226 16.7553H49.3226C49.5649 16.7429 49.8028 16.8236 49.9876 16.9808C50.1522 17.1303 50.2346 17.3667 50.2346 17.6901V19.5078C50.2339 19.6278 50.2129 19.7469 50.1725 19.8599C50.1301 19.9775 50.0675 20.0868 49.9876 20.1829C49.9078 20.2784 49.8096 20.3568 49.6988 20.4135C49.5813 20.4735 49.4507 20.5035 49.3188 20.5009H39.1399C39.0172 20.5009 38.8963 20.4709 38.7878 20.4135C38.6758 20.3561 38.5744 20.2803 38.4876 20.1893C38.3991 20.0972 38.3286 19.9893 38.2798 19.8713C38.2311 19.7563 38.2057 19.6327 38.2051 19.5078V17.9105C38.2044 17.806 38.2142 17.7016 38.2342 17.5989C38.2616 17.4818 38.3192 17.3739 38.4014 17.2861C38.9166 16.7169 39.4574 16.0992 40.024 15.4329C40.5907 14.7667 41.1619 14.0911 41.7378 13.4063C42.3154 12.7215 42.8888 12.0459 43.458 11.3796C44.0271 10.7134 44.5722 10.0872 45.0932 9.50118H39.4692C39.2228 9.5151 38.9806 9.4324 38.7941 9.27065C38.6282 9.11739 38.5408 8.87419 38.5408 8.54359L38.542 6.67527Z" fill="white"/>
<path d="M52.5374 0.887833C52.5374 0.565257 52.6062 0.336414 52.7438 0.201304C52.8815 0.0661936 53.0972 -0.000517073 53.3911 0.00117181H56.0701C56.3046 -0.0102063 56.5356 0.0615653 56.7224 0.203837C56.8871 0.338103 56.9758 0.567368 56.9758 0.890366V3.14122C56.9734 3.24475 56.9519 3.34695 56.9124 3.44268C56.8672 3.5544 56.8067 3.65928 56.7326 3.75428C56.6557 3.85623 56.5598 3.94226 56.4501 4.00761C56.3346 4.07391 56.2033 4.10762 56.0701 4.10515H53.3911C52.8211 4.10515 52.5365 3.78553 52.5374 3.14629V0.887833ZM52.5374 6.73093C52.5321 6.50247 52.6049 6.27903 52.7438 6.0976C52.8229 6.00493 52.9228 5.93221 53.0352 5.88533C53.1477 5.83845 53.2696 5.81875 53.3911 5.8278H56.0359C56.1391 5.82971 56.2409 5.8512 56.3361 5.89114C56.4461 5.93643 56.5473 6.00074 56.635 6.08114C56.7283 6.16268 56.8086 6.25792 56.8732 6.3636C56.9402 6.47516 56.9744 6.60334 56.972 6.73346V19.6078C56.9807 19.7293 56.9635 19.8513 56.9216 19.9658C56.8797 20.0802 56.8139 20.1844 56.7288 20.2715C56.5357 20.4327 56.2881 20.5134 56.0372 20.497H53.3911C52.8211 20.497 52.5365 20.2014 52.5374 19.6103V6.73093Z" fill="white"/>
<path d="M60.0395 5.97117C60.1291 5.89259 60.2365 5.83695 60.3524 5.80904C60.4548 5.78681 60.5592 5.77535 60.664 5.77484H62.4082C62.533 5.77017 62.6574 5.79399 62.7717 5.84451C62.865 5.88743 62.9464 5.95269 63.0085 6.03451C63.0728 6.11948 63.1252 6.2128 63.1643 6.3119C63.2074 6.41577 63.2479 6.52977 63.291 6.65264L63.7761 8.04596C63.9915 7.76898 64.2089 7.4861 64.4285 7.1973C64.653 6.90285 64.9148 6.63886 65.2075 6.41197C65.5334 6.16363 65.8957 5.96709 66.2816 5.82931C66.7707 5.66333 67.2852 5.58487 67.8016 5.59751C68.8027 5.58732 69.795 5.78621 70.7149 6.18144C71.5823 6.55406 72.3642 7.10021 73.0126 7.7863C73.6657 8.48368 74.1776 9.30094 74.5199 10.1929C74.8871 11.1438 75.0715 12.1554 75.0633 13.1747C75.0714 14.193 74.8874 15.2036 74.5212 16.1538C74.1788 17.0458 73.6669 17.8631 73.0139 18.5605C72.364 19.2462 71.5825 19.7937 70.7162 20.1704C69.7972 20.5691 68.8045 20.7698 67.8028 20.7594C67.3646 20.7684 66.9277 20.7082 66.5083 20.5808C66.1666 20.4712 65.8421 20.3139 65.5444 20.1134C65.2734 19.9305 65.0236 19.7181 64.7996 19.4801C64.5843 19.2496 64.3732 19.0186 64.1663 18.7872V24.1693C64.1717 24.3841 64.0978 24.5933 63.9585 24.757C63.8205 24.9191 63.6039 25.0002 63.3125 25.0002H60.6652C60.5626 24.9979 60.4611 24.9782 60.365 24.9419C60.2575 24.9036 60.1563 24.8494 60.0648 24.7811C59.9711 24.7106 59.8927 24.6218 59.8343 24.5201C59.7717 24.4139 59.7397 24.2925 59.7418 24.1693V6.62857C59.7364 6.49651 59.7662 6.36539 59.828 6.24857C59.8862 6.14733 59.9573 6.05408 60.0395 5.97117ZM70.8264 13.1747C70.8289 12.6966 70.7466 12.2218 70.5832 11.7725C70.4314 11.3457 70.2002 10.9516 69.9017 10.6109C69.6091 10.2804 69.2517 10.0135 68.8516 9.82688C68.4282 9.63159 67.9664 9.53336 67.5001 9.53935C67.0264 9.5366 66.557 9.62876 66.1195 9.81042C65.697 9.98388 65.3105 10.2343 64.9795 10.5489C64.6492 10.8656 64.3789 11.2393 64.1815 11.6521C63.9778 12.0746 63.8614 12.5339 63.8395 13.0024V13.1747C63.838 13.6565 63.9323 14.1339 64.1169 14.579C64.3015 15.0241 64.5728 15.4281 64.9149 15.7675C65.2508 16.0982 65.6462 16.3625 66.0802 16.5465C66.5286 16.7395 67.012 16.8378 67.5001 16.8353C67.9665 16.8409 68.4283 16.7422 68.8516 16.5465C69.2507 16.3604 69.6079 16.0954 69.9017 15.7675C70.202 15.4282 70.4335 15.0337 70.5832 14.606C70.7475 14.1468 70.8299 13.6623 70.8264 13.1747Z" fill="white"/>
</svg>
